<?xml version="1.0" encoding="UTF-8" standalone="no"?>
<!-- Created with Inkscape (http://www.inkscape.org/) -->

<svg
   xmlns:svg="http://www.w3.org/2000/svg"
   xmlns="http://www.w3.org/2000/svg"
   xmlns:xlink="http://www.w3.org/1999/xlink"
   version="1.1"
   width="406.63055"
   height="494.5741"
   id="svg2"
   style="display:inline">
  <defs
     id="defs4">
    <linearGradient
       id="linearGradient3852">
      <stop
         id="stop3854"
         style="stop-color:#5d6c53;stop-opacity:1"
         offset="0" />
      <stop
         id="stop3856"
         style="stop-color:#10120e;stop-opacity:1"
         offset="1" />
    </linearGradient>
    <linearGradient
       id="linearGradient2878">
      <stop
         id="stop2880"
         style="stop-color:#5d6c53;stop-opacity:1"
         offset="0" />
      <stop
         id="stop2882"
         style="stop-color:#1f241c;stop-opacity:1"
         offset="1" />
    </linearGradient>
    <linearGradient
       id="linearGradient2901">
      <stop
         id="stop2903"
         style="stop-color:#9dac93;stop-opacity:1"
         offset="0" />
      <stop
         id="stop2905"
         style="stop-color:#5d6c53;stop-opacity:1"
         offset="1" />
    </linearGradient>
    <linearGradient
       id="linearGradient3009">
      <stop
         id="stop3011"
         style="stop-color:#3e4837;stop-opacity:1"
         offset="0" />
      <stop
         id="stop3013"
         style="stop-color:#000000;stop-opacity:1"
         offset="1" />
    </linearGradient>
    <linearGradient
       id="linearGradient2989">
      <stop
         id="stop2991"
         style="stop-color:#9dac93;stop-opacity:1"
         offset="0" />
      <stop
         id="stop2993"
         style="stop-color:#3e4837;stop-opacity:1"
         offset="1" />
    </linearGradient>
    <linearGradient
       x1="161.42857"
       y1="375.93362"
       x2="370"
       y2="572.36218"
       id="linearGradient2997"
       xlink:href="#linearGradient2989"
       gradientUnits="userSpaceOnUse" />
    <linearGradient
       x1="194.28572"
       y1="405.21933"
       x2="346.42856"
       y2="558.79077"
       id="linearGradient3015"
       xlink:href="#linearGradient3009"
       gradientUnits="userSpaceOnUse" />
    <linearGradient
       x1="208.57143"
       y1="320.5625"
       x2="339.48526"
       y2="320.5625"
       id="linearGradient2884"
       xlink:href="#linearGradient2878"
       gradientUnits="userSpaceOnUse"
       gradientTransform="matrix(1.0702944,0,0,1.0702199,-15.662843,-21.538723)" />
    <linearGradient
       x1="215.71428"
       y1="303.07648"
       x2="326.42856"
       y2="300.8125"
       id="linearGradient3658"
       xlink:href="#linearGradient2901"
       gradientUnits="userSpaceOnUse"
       gradientTransform="matrix(1.0702944,0,0,1.0702199,-15.662843,-42.943121)" />
    <linearGradient
       x1="161.42857"
       y1="375.93362"
       x2="370"
       y2="572.36218"
       id="linearGradient3774"
       xlink:href="#linearGradient2989"
       gradientUnits="userSpaceOnUse" />
    <linearGradient
       x1="161.42857"
       y1="375.93362"
       x2="370"
       y2="572.36218"
       id="linearGradient3776"
       xlink:href="#linearGradient2989"
       gradientUnits="userSpaceOnUse" />
    <linearGradient
       x1="161.42857"
       y1="375.93362"
       x2="370"
       y2="572.36218"
       id="linearGradient3778"
       xlink:href="#linearGradient2989"
       gradientUnits="userSpaceOnUse" />
    <linearGradient
       x1="161.42857"
       y1="375.93362"
       x2="370"
       y2="572.36218"
       id="linearGradient3780"
       xlink:href="#linearGradient2989"
       gradientUnits="userSpaceOnUse" />
    <linearGradient
       x1="161.42857"
       y1="375.93362"
       x2="370"
       y2="572.36218"
       id="linearGradient3782"
       xlink:href="#linearGradient2989"
       gradientUnits="userSpaceOnUse" />
    <linearGradient
       x1="161.42857"
       y1="375.93362"
       x2="370"
       y2="572.36218"
       id="linearGradient3784"
       xlink:href="#linearGradient2989"
       gradientUnits="userSpaceOnUse" />
    <linearGradient
       x1="161.42857"
       y1="375.93362"
       x2="370"
       y2="572.36218"
       id="linearGradient3786"
       xlink:href="#linearGradient2989"
       gradientUnits="userSpaceOnUse" />
    <linearGradient
       x1="161.42857"
       y1="375.93362"
       x2="370"
       y2="572.36218"
       id="linearGradient3788"
       xlink:href="#linearGradient2989"
       gradientUnits="userSpaceOnUse" />
    <linearGradient
       x1="161.42857"
       y1="375.93362"
       x2="370"
       y2="572.36218"
       id="linearGradient3790"
       xlink:href="#linearGradient2989"
       gradientUnits="userSpaceOnUse" />
    <linearGradient
       x1="161.42857"
       y1="375.93362"
       x2="370"
       y2="572.36218"
       id="linearGradient3792"
       xlink:href="#linearGradient2989"
       gradientUnits="userSpaceOnUse" />
    <linearGradient
       x1="161.42857"
       y1="375.93362"
       x2="370"
       y2="572.36218"
       id="linearGradient3794"
       xlink:href="#linearGradient2989"
       gradientUnits="userSpaceOnUse" />
    <linearGradient
       x1="161.42857"
       y1="375.93362"
       x2="370"
       y2="572.36218"
       id="linearGradient3796"
       xlink:href="#linearGradient2989"
       gradientUnits="userSpaceOnUse" />
    <linearGradient
       x1="161.42857"
       y1="375.93362"
       x2="370"
       y2="572.36218"
       id="linearGradient3798"
       xlink:href="#linearGradient2989"
       gradientUnits="userSpaceOnUse" />
    <linearGradient
       x1="161.42857"
       y1="375.93362"
       x2="370"
       y2="572.36218"
       id="linearGradient3801"
       xlink:href="#linearGradient2989"
       gradientUnits="userSpaceOnUse" />
    <linearGradient
       x1="161.42857"
       y1="375.93362"
       x2="370"
       y2="572.36218"
       id="linearGradient3804"
       xlink:href="#linearGradient2989"
       gradientUnits="userSpaceOnUse" />
    <linearGradient
       x1="161.42857"
       y1="375.93362"
       x2="370"
       y2="572.36218"
       id="linearGradient3807"
       xlink:href="#linearGradient2989"
       gradientUnits="userSpaceOnUse" />
    <linearGradient
       x1="161.42857"
       y1="375.93362"
       x2="370"
       y2="572.36218"
       id="linearGradient3810"
       xlink:href="#linearGradient2989"
       gradientUnits="userSpaceOnUse" />
    <linearGradient
       x1="161.42857"
       y1="375.93362"
       x2="370"
       y2="572.36218"
       id="linearGradient3813"
       xlink:href="#linearGradient2989"
       gradientUnits="userSpaceOnUse" />
    <linearGradient
       x1="161.42857"
       y1="375.93362"
       x2="370"
       y2="572.36218"
       id="linearGradient3816"
       xlink:href="#linearGradient2989"
       gradientUnits="userSpaceOnUse" />
    <linearGradient
       x1="161.42857"
       y1="375.93362"
       x2="370"
       y2="572.36218"
       id="linearGradient3819"
       xlink:href="#linearGradient2989"
       gradientUnits="userSpaceOnUse" />
    <linearGradient
       x1="161.42857"
       y1="375.93362"
       x2="370"
       y2="572.36218"
       id="linearGradient3822"
       xlink:href="#linearGradient2989"
       gradientUnits="userSpaceOnUse" />
    <linearGradient
       x1="161.42857"
       y1="375.93362"
       x2="370"
       y2="572.36218"
       id="linearGradient3825"
       xlink:href="#linearGradient2989"
       gradientUnits="userSpaceOnUse" />
    <linearGradient
       x1="161.42857"
       y1="375.93362"
       x2="370"
       y2="572.36218"
       id="linearGradient3828"
       xlink:href="#linearGradient2989"
       gradientUnits="userSpaceOnUse" />
    <linearGradient
       x1="161.42857"
       y1="375.93362"
       x2="370"
       y2="572.36218"
       id="linearGradient3831"
       xlink:href="#linearGradient2989"
       gradientUnits="userSpaceOnUse" />
    <linearGradient
       x1="161.42857"
       y1="375.93362"
       x2="370"
       y2="572.36218"
       id="linearGradient3834"
       xlink:href="#linearGradient2989"
       gradientUnits="userSpaceOnUse" />
    <linearGradient
       x1="208.57143"
       y1="320.5625"
       x2="274.11804"
       y2="320.5625"
       id="linearGradient3839"
       xlink:href="#linearGradient2878"
       gradientUnits="userSpaceOnUse"
       gradientTransform="matrix(1.0702944,0,0,1.0702199,-15.662843,-21.538723)" />
    <linearGradient
       x1="215.71428"
       y1="300.8125"
       x2="295.51733"
       y2="300.8125"
       id="linearGradient3841"
       xlink:href="#linearGradient2901"
       gradientUnits="userSpaceOnUse"
       gradientTransform="matrix(1.0702944,0,0,1.0702199,-13.662843,-26.943121)" />
    <linearGradient
       x1="196.47467"
       y1="314.44574"
       x2="349.68774"
       y2="314.44574"
       id="linearGradient3858"
       xlink:href="#linearGradient3852"
       gradientUnits="userSpaceOnUse"
       gradientTransform="translate(2,16)" />
    <linearGradient
       x1="161.42857"
       y1="375.93362"
       x2="370"
       y2="572.36218"
       id="linearGradient3872"
       xlink:href="#linearGradient2989"
       gradientUnits="userSpaceOnUse" />
    <linearGradient
       x1="161.42857"
       y1="375.93362"
       x2="370"
       y2="572.36218"
       id="linearGradient3874"
       xlink:href="#linearGradient2989"
       gradientUnits="userSpaceOnUse" />
    <linearGradient
       x1="161.42857"
       y1="375.93362"
       x2="370"
       y2="572.36218"
       id="linearGradient3876"
       xlink:href="#linearGradient2989"
       gradientUnits="userSpaceOnUse" />
    <linearGradient
       x1="161.42857"
       y1="375.93362"
       x2="370"
       y2="572.36218"
       id="linearGradient3878"
       xlink:href="#linearGradient2989"
       gradientUnits="userSpaceOnUse" />
    <linearGradient
       x1="161.42857"
       y1="375.93362"
       x2="370"
       y2="572.36218"
       id="linearGradient3880"
       xlink:href="#linearGradient2989"
       gradientUnits="userSpaceOnUse" />
    <linearGradient
       x1="161.42857"
       y1="375.93362"
       x2="370"
       y2="572.36218"
       id="linearGradient3882"
       xlink:href="#linearGradient2989"
       gradientUnits="userSpaceOnUse" />
    <linearGradient
       x1="161.42857"
       y1="375.93362"
       x2="370"
       y2="572.36218"
       id="linearGradient3884"
       xlink:href="#linearGradient2989"
       gradientUnits="userSpaceOnUse" />
    <linearGradient
       x1="161.42857"
       y1="375.93362"
       x2="370"
       y2="572.36218"
       id="linearGradient3886"
       xlink:href="#linearGradient2989"
       gradientUnits="userSpaceOnUse" />
    <linearGradient
       x1="161.42857"
       y1="375.93362"
       x2="370"
       y2="572.36218"
       id="linearGradient3888"
       xlink:href="#linearGradient2989"
       gradientUnits="userSpaceOnUse" />
    <linearGradient
       x1="161.42857"
       y1="375.93362"
       x2="370"
       y2="572.36218"
       id="linearGradient3890"
       xlink:href="#linearGradient2989"
       gradientUnits="userSpaceOnUse" />
    <linearGradient
       x1="161.42857"
       y1="375.93362"
       x2="370"
       y2="572.36218"
       id="linearGradient3892"
       xlink:href="#linearGradient2989"
       gradientUnits="userSpaceOnUse" />
    <linearGradient
       x1="161.42857"
       y1="375.93362"
       x2="370"
       y2="572.36218"
       id="linearGradient3894"
       xlink:href="#linearGradient2989"
       gradientUnits="userSpaceOnUse" />
    <linearGradient
       x1="161.42857"
       y1="375.93362"
       x2="370"
       y2="572.36218"
       id="linearGradient3897"
       xlink:href="#linearGradient2989"
       gradientUnits="userSpaceOnUse" />
    <linearGradient
       x1="161.42857"
       y1="375.93362"
       x2="370"
       y2="572.36218"
       id="linearGradient3900"
       xlink:href="#linearGradient2989"
       gradientUnits="userSpaceOnUse" />
    <linearGradient
       x1="161.42857"
       y1="375.93362"
       x2="370"
       y2="572.36218"
       id="linearGradient3903"
       xlink:href="#linearGradient2989"
       gradientUnits="userSpaceOnUse" />
    <linearGradient
       x1="161.42857"
       y1="375.93362"
       x2="370"
       y2="572.36218"
       id="linearGradient3906"
       xlink:href="#linearGradient2989"
       gradientUnits="userSpaceOnUse" />
    <linearGradient
       x1="161.42857"
       y1="375.93362"
       x2="370"
       y2="572.36218"
       id="linearGradient3909"
       xlink:href="#linearGradient2989"
       gradientUnits="userSpaceOnUse" />
    <linearGradient
       x1="161.42857"
       y1="375.93362"
       x2="370"
       y2="572.36218"
       id="linearGradient3912"
       xlink:href="#linearGradient2989"
       gradientUnits="userSpaceOnUse" />
    <linearGradient
       x1="161.42857"
       y1="375.93362"
       x2="370"
       y2="572.36218"
       id="linearGradient3915"
       xlink:href="#linearGradient2989"
       gradientUnits="userSpaceOnUse" />
    <linearGradient
       x1="161.42857"
       y1="375.93362"
       x2="370"
       y2="572.36218"
       id="linearGradient3918"
       xlink:href="#linearGradient2989"
       gradientUnits="userSpaceOnUse" />
    <linearGradient
       x1="161.42857"
       y1="375.93362"
       x2="370"
       y2="572.36218"
       id="linearGradient3921"
       xlink:href="#linearGradient2989"
       gradientUnits="userSpaceOnUse" />
    <linearGradient
       x1="161.42857"
       y1="375.93362"
       x2="370"
       y2="572.36218"
       id="linearGradient3924"
       xlink:href="#linearGradient2989"
       gradientUnits="userSpaceOnUse" />
    <linearGradient
       x1="161.42857"
       y1="375.93362"
       x2="370"
       y2="572.36218"
       id="linearGradient3927"
       xlink:href="#linearGradient2989"
       gradientUnits="userSpaceOnUse" />
    <linearGradient
       x1="161.42857"
       y1="375.93362"
       x2="370"
       y2="572.36218"
       id="linearGradient3930"
       xlink:href="#linearGradient2989"
       gradientUnits="userSpaceOnUse" />
    <linearGradient
       x1="196.47467"
       y1="314.44574"
       x2="349.68774"
       y2="314.44574"
       id="linearGradient3966"
       xlink:href="#linearGradient3852"
       gradientUnits="userSpaceOnUse"
       gradientTransform="translate(2,16)" />
    <linearGradient
       x1="194.28572"
       y1="405.21933"
       x2="346.42856"
       y2="558.79077"
       id="linearGradient3968"
       xlink:href="#linearGradient3009"
       gradientUnits="userSpaceOnUse" />
    <linearGradient
       x1="161.42857"
       y1="375.93362"
       x2="370"
       y2="572.36218"
       id="linearGradient3970"
       xlink:href="#linearGradient2989"
       gradientUnits="userSpaceOnUse" />
    <linearGradient
       x1="215.71428"
       y1="300.8125"
       x2="295.51733"
       y2="300.8125"
       id="linearGradient3972"
       xlink:href="#linearGradient2901"
       gradientUnits="userSpaceOnUse"
       gradientTransform="matrix(1.0702944,0,0,1.0702199,-13.662843,-26.943121)" />
  </defs>
  <g
     transform="translate(-104.57724,-193.24984)"
     id="layer2"
     style="display:inline">
    <path
       d="m 306.46875,193.25 c -26.08582,0.0185 -54.02073,6.00601 -74.25,9.53125 -8.09329,1.41038 -15.70669,4.71063 -21.46875,10.0625 -5.76206,5.35187 -9.5625,12.9437 -9.5625,21.75 0,0.97841 0.0733,1.94641 0.15625,2.875 0.005,0.0604 -0.006,0.12737 0,0.1875 -0.11933,2.81966 -0.15625,5.71281 -0.15625,8.9375 0,9.96966 5.7974,18.32479 13.4375,24 l -0.4375,6.1875 0,0.0312 c 0.0202,-0.4859 -0.73035,1.61371 -2.71875,3.96875 -0.0231,0.0273 -0.0391,0.0351 -0.0625,0.0625 -0.43191,0.49035 -0.8312,0.9352 -1.1875,1.3125 a 5.1462928,5.1462928 0 0 0 -0.0625,0.0625 c -0.0671,0.0737 -0.22841,0.24565 -0.4375,0.46875 -0.0288,0.0307 -0.0307,0.0282 -0.0625,0.0625 -3.25593,3.37729 -7.6593,7.34644 -11.59375,11.46875 -3.95577,4.14465 -7.68739,8.1908 -8.9375,13.65625 a 5.1462928,5.1462928 0 0 0 -0.125,1.03125 5.1462928,5.1462928 0 0 0 0,0.0625 c -0.0737,0.30667 -0.12912,0.57914 -0.1875,1.0625 l -2.78125,23.03125 c -22.80205,7.0199 -39.11987,26.87499 -51.09375,48.78125 -0.036,0.0658 -0.0891,0.12167 -0.125,0.1875 l 0.0312,0 c -2.38335,3.97488 -4.56183,8.00368 -6.1875,11.625 -1.25437,2.79421 -2.61389,5.63648 -3.3125,8.8125 -0.60107,2.73258 -0.41399,6.35084 1.5625,9.21875 1.90543,4.73345 5.22561,7.60952 7.15625,9.8125 2.00788,2.29111 2.51094,2.87364 2.125,4.90625 -0.55266,2.91062 -0.76954,2.6421 -3.28125,3.6875 -2.45239,1.02071 -6.92701,2.08068 -11.6875,5.1875 -0.11516,0.0752 -0.22828,0.10989 -0.34375,0.1875 l 0.0312,0.0625 c -1.4707,0.88182 -2.76012,1.91375 -3.84375,3.0625 -0.0349,0.0332 -0.0888,0.0906 -0.125,0.125 -0.0436,0.047 -0.11326,0.0778 -0.15625,0.125 -0.39428,0.37638 -0.82842,0.78223 -1.3125,1.3125 a 5.1462928,5.1462928 0 0 0 -0.4375,0.5625 c -0.61027,0.88936 -1.06292,1.75811 -1.5,2.625 -0.0313,0.0503 -0.0306,0.008 -0.0625,0.0625 a 5.1462928,5.1462928 0 0 0 -0.125,0.25 c -0.01,0.0199 -0.0214,0.0426 -0.0312,0.0625 a 5.1462928,5.1462928 0 0 0 -0.0312,0.0312 c 0.003,-0.007 -0.0277,0.0558 -0.0312,0.0625 -0.61522,1.0723 -1.18747,2.13542 -1.71875,3.21875 -1.59422,3.25074 -2.48519,7.30809 -3.40625,12.3125 -0.92106,5.00441 -1.69201,10.78221 -2.28125,16.53125 -0.58924,5.74904 -0.98976,11.46258 -1.15625,16.3125 -0.16649,4.84992 -0.20896,8.58584 0.34375,11.59375 0.6319,3.43888 1.11839,5.65926 2.03125,7.8125 0.01,0.0661 -0.005,0.12754 0.0625,0.4375 a 5.1462928,5.1462928 0 0 0 0.4375,1.1875 c 2.84259,5.72322 8.52551,6.97433 11.46875,8.0625 1.47162,0.54408 2.38821,1.06293 2.6875,1.34375 0.29929,0.28082 0.41054,0.19413 0.46875,1.40625 0.0706,1.46942 0.14781,0.91103 -0.78125,1.65625 -0.89496,0.71787 -3.04096,1.76995 -5.375,3.875 L 116,529.53125 c -0.0553,0.0454 -0.10151,0.10961 -0.15625,0.15625 -0.025,0.0232 -0.0374,0.0391 -0.0625,0.0625 -3.55125,3.06948 -5.87726,8.61265 -4.6875,14.9375 0.93268,4.95814 3.79319,14.39523 7.4375,24.25 3.64431,9.85477 7.54908,19.46415 12.40625,25.125 1.07155,1.24885 2.85985,3.84663 5.125,6.34375 2.00733,2.2129 4.59389,4.56789 8.25,5.5625 0.0537,0.0146 0.10207,0.0485 0.15625,0.0625 5.19011,2.35747 10.19581,3.05075 13.34375,4 1.59077,0.47969 2.63981,0.98495 3.125,1.375 0.48519,0.39005 0.61898,0.50056 0.8125,1.4375 0.66489,3.21912 -0.007,4.2345 -1.125,7.34375 -1.08433,3.0163 -2.2077,7.82725 -0.65625,13.8125 l -0.0312,0 c 0.0172,0.0998 0.0339,0.44302 0.15625,1.09375 0.90568,4.81463 3.88714,8.08487 7.59375,12.1875 3.70661,4.10263 8.37299,8.47111 13.15625,12.625 0.58885,0.51152 0.63238,0.53322 0.125,0.0937 2.80621,2.4336 5.66644,4.82777 8.40625,7 0.49254,0.3905 0.91839,0.71634 1.28125,1 0.22178,0.1736 0.50698,0.41671 0.9375,0.75 1.18385,0.91537 2.35287,1.79996 3.46875,2.625 0.34233,0.25322 0.65476,0.47843 0.8125,0.59375 1.46286,1.06779 2.84874,2.03349 4.0625,2.84375 3.48897,2.32909 7.9466,6.18199 13.9375,8.375 2.16122,0.79113 4.65791,1.19929 7.78125,1.65625 3.12334,0.45696 6.52572,0.82446 9.53125,0.78125 0.36315,-0.005 0.8469,-0.0168 1.5,-0.0625 a 5.1462928,5.1462928 0 0 0 0.0312,0 c 1.49032,-0.10512 2.82045,-0.1625 4.6875,-1.21875 1.09782,-0.62109 2.33545,-1.45391 3.4375,-2.875 0.67219,-0.86679 1.15354,-2.03636 1.46875,-3.28125 1.47727,1.52023 3.0926,3.26906 4.8125,4.84375 1.82009,1.66642 3.35593,3.54512 7.125,3.96875 2.08299,0.23412 7.18137,0.59323 12.5,0.75 2.65931,0.0784 5.33198,0.11688 7.65625,0 2.32427,-0.11688 3.75993,0.25002 6.6875,-1.40625 0.34301,-0.19406 0.68912,-0.38894 1.03125,-0.59375 2.19825,-1.31591 5.57119,-3.55785 7.75,-7.59375 l 0.0312,0.0312 c 0.92374,-1.31528 1.63724,-2.22421 1.96875,-2.5 0.0663,-0.0552 0.0692,-0.002 0.0937,-0.0312 0.0926,0.18621 -0.0399,-0.038 0.125,0.34375 0.86309,1.99776 3.39252,5.7832 8.125,8.0625 0.16318,0.12203 -0.19654,-0.15304 0.0625,0.0312 0.18058,0.12828 0.37722,0.1715 0.5625,0.28125 0.14066,0.0606 0.23052,0.16103 0.375,0.21875 a 5.1462928,5.1462928 0 0 0 0.0312,0.0312 c 0.99774,0.51235 2.0396,0.86081 3,0.96875 -0.0543,-0.006 -0.008,-0.0138 0.34375,0.0312 a 5.1462928,5.1462928 0 0 0 0.1875,0.0312 c 0.88891,0.0808 0.90854,0.0805 0.0312,0 l 0,-0.0625 c 0.75429,0.19 1.5537,0.2789 2.40625,0.34375 l -0.0312,0.0937 a 5.1462928,5.1462928 0 0 0 0.15625,0.0312 c 1.55826,0.27015 3.62428,0.53966 6.09375,0.25 7.20214,-0.84481 12.66559,-5.70156 16,-8.0625 0.58685,-0.41552 1.21599,-0.93013 1.8125,-1.375 0.67939,1.06076 1.55753,2.13712 2.84375,2.90625 2.17014,1.2977 4.67422,1.69066 7.625,1.59375 5.78827,-0.1901 11.53584,-2.89197 17.6875,-6.65625 6.15166,-3.76428 12.58037,-8.76293 18.53125,-14.3125 5.95088,-5.54957 11.42964,-11.63177 15.65625,-17.59375 4.22661,-5.96198 7.34372,-11.69443 7.96875,-17.59375 0.30176,-2.84814 -0.59339,-5.70658 -1.875,-7.53125 -1.28161,-1.82467 -2.57342,-2.76028 -3.28125,-3.4375 -0.70783,-0.67722 -0.8385,-0.91882 -0.9375,-1.21875 -0.099,-0.29993 -0.28572,-1.01661 0.21875,-2.96875 0.34801,-1.34669 0.62384,-1.52698 1.59375,-2.09375 0.96991,-0.56677 2.8421,-1.14342 5.3125,-1.65625 4.94079,-1.02567 12.22446,-1.88334 18.53125,-7.125 a 5.1462928,5.1462928 0 0 0 0.46875,-0.4375 c 5.94748,-6.28507 11.44062,-16.19953 15.75,-26.75 4.30938,-10.55047 7.37245,-21.44063 7.09375,-30.34375 -0.13549,-4.32814 -1.3735,-7.88463 -3.375,-10.40625 -2.0015,-2.52162 -4.43905,-3.78561 -6.09375,-4.625 -1.6547,-0.83939 -2.46342,-1.35413 -2.5625,-1.46875 -0.0991,-0.11462 -0.3109,0.004 -0.125,-1.9375 0.17352,-1.81251 0.50255,-2.04345 0.96875,-2.4375 0.4662,-0.39405 1.5324,-0.87467 3.1875,-1.3125 1.6551,-0.43783 3.76129,-0.78792 6.125,-1.78125 2.36371,-0.99333 5.21652,-3.18116 6.375,-6.5 2.99423,-8.57789 2.72215,-21.36622 1.8125,-34.25 -0.90965,-12.88378 -2.65558,-25.01284 -4.5625,-31.40625 -2.22664,-7.46534 -8.6337,-10.61721 -13.0625,-12.75 -4.4288,-2.13279 -7.07844,-3.34597 -8.46875,-7.15625 -0.8293,-2.27276 -0.68772,-3.0635 -0.65625,-3.1875 0.0315,-0.124 0.0542,-0.24955 0.90625,-1.15625 0.85208,-0.9067 2.46622,-2.43091 3.5625,-4.90625 1.09628,-2.47534 1.46828,-5.62482 0.90625,-9.25 -1.67086,-10.77728 -8.04073,-24.97216 -15.71875,-38.125 -7.67802,-13.15284 -16.03501,-24.8577 -24.8125,-30 a 5.1462928,5.1462928 0 0 0 -0.53125,-0.28125 c -5.13103,-2.24697 -10.11671,-3.60368 -14.96875,-4.8125 l -0.5625,-3.84375 c 12.1864,-10.23656 20.03125,-24.66177 20.03125,-40.75 0,-4.94383 -0.81992,-9.72583 -2.1875,-14.3125 6.77544,0.46311 13.41702,0.92088 17.6875,1.1875 11.4061,19.83714 22.1933,47.52189 31.65625,78.28125 l -0.0312,0 c 0.60255,2.00883 1.22367,3.9402 1.78125,5.84375 a 5.1462928,5.1462928 0 0 0 0,0.0312 c 0.0531,0.17736 0.15415,0.5581 0.3125,1.09375 0.003,0.01 -0.003,0.0217 0,0.0312 8.09878,27.77382 15.32216,57.07018 21.375,84.71875 11.55404,53.82332 18.71501,102.66697 19.9375,121.5 0.1242,1.91343 0.53477,2.66295 0.96875,3.90625 0.43398,1.2433 0.93355,2.58442 1.4375,3.875 0.50395,1.29058 1.01577,2.52878 1.34375,3.4375 0.15952,0.44197 0.28782,0.80967 0.34375,1 0.002,0.005 -0.001,0.0262 0,0.0312 a 5.1462928,5.1462928 0 0 0 2.4375,3.78125 c 0,0 1.60392,0.88992 3.4375,1.09375 1.83358,0.20383 4.35771,-0.15606 6.65625,-1.625 4.59708,-2.93787 8.02855,-8.9324 10.59375,-21.1875 1.33438,-6.37492 0.46945,-16.36246 -1.40625,-31.40625 -1.8757,-15.04379 -5.07528,-34.38593 -9.4375,-56.3125 -8.71371,-43.79916 -22.10423,-97.9067 -39.15625,-148.25 -0.0137,-0.0404 -0.0176,-0.0846 -0.0312,-0.125 a 5.1462928,5.1462928 0 0 0 0,-0.0312 c -0.0398,-0.12277 -0.098,-0.31811 -0.1875,-0.59375 a 5.1462928,5.1462928 0 0 0 -0.0312,-0.0625 c -0.27391,-0.8062 -0.54125,-1.58403 -0.8125,-2.375 l -0.0312,0 c -3.83128,-11.69313 -7.80671,-23.2701 -12.03125,-34.5 -0.76136,-2.02384 -1.50076,-4.01186 -2.28125,-6.03125 -8.54726,-22.11747 -17.85218,-42.82353 -27.8125,-60.75 -0.3841,-0.69131 -0.74207,-1.31405 -1.0625,-1.9375 -0.0301,-0.0585 -0.0717,-0.21012 -0.1875,-0.4375 -0.24579,-0.48306 -0.51007,-0.99011 -0.78125,-1.53125 -0.13516,-0.26949 -0.27544,-0.55464 -0.4375,-0.875 -0.20222,-0.40025 -0.39986,-0.78364 -0.59375,-1.15625 -0.24347,-0.46768 -0.4855,-0.8892 -0.71875,-1.3125 -1.08978,-1.97838 -2.41031,-4.10125 -4.21875,-6.21875 -0.27713,-0.32477 -0.38424,-0.45221 -0.34375,-0.40625 a 5.1462928,5.1462928 0 0 0 -0.0312,0 c -0.15027,-0.17018 -0.3716,-0.38353 -0.625,-0.65625 -0.006,-0.007 0.007,-0.0242 0,-0.0312 l 0.0312,0 c -0.16366,-0.17582 -0.37092,-0.39693 -0.625,-0.65625 -0.1484,-0.15118 -0.30155,-0.30342 -0.4375,-0.4375 -0.26747,-0.26366 -0.62104,-0.58904 -1,-0.9375 -1.45374,-1.33606 -3.11508,-2.68782 -5.09375,-4.0625 a 5.1462928,5.1462928 0 0 0 -2.125,-0.875 c -29.57545,-4.74943 -62.45168,-6.8026 -92.625,-6.78125 z m 37.96875,78.0625 c 8.29937,0.82575 17.35255,1.59612 26.8125,2.3125 0.61308,1.20295 1.14364,2.40192 1.59375,3.59375 0.003,0.009 0.0359,0.13065 0.125,0.375 0.88339,2.42327 1.52274,4.94198 1.84375,7.53125 l -0.0312,0 c 0.10266,0.89831 0.12319,0.93553 0.0312,0.15625 0.15138,1.27259 0.21875,2.61692 0.21875,4.03125 0,1.36518 -0.0531,2.6574 -0.1875,3.84375 a 5.1462928,5.1462928 0 0 0 0,0.0312 c 0.0523,-0.4656 0.0363,-0.41101 -0.0312,0.15625 a 5.1462928,5.1462928 0 0 0 0,0.0937 c -0.10058,1.02593 -0.0986,1.03678 0,0.0312 -0.23702,1.91223 -0.658,3.79679 -1.21875,5.65625 a 5.1462928,5.1462928 0 0 0 0,0.0312 c -0.38375,1.26911 -0.80098,2.49555 -1.3125,3.6875 -0.0535,0.12521 -0.22123,0.46644 -0.46875,1 -0.17549,0.3772 -0.32437,0.64733 -0.40625,0.8125 a 5.1462928,5.1462928 0 0 0 -0.0312,0.125 c -0.006,0.0135 0.006,0.0178 0,0.0312 a 5.1462928,5.1462928 0 0 0 -0.0312,0.0312 c -0.006,0.0134 0.006,0.018 0,0.0312 -0.2627,0.52082 -0.5517,1.04537 -0.84375,1.5625 -0.26665,0.47241 -0.64594,0.90945 -0.9375,1.375 -0.98856,-4.69459 -3.93802,-8.1624 -7.0625,-11.3125 -3.13834,-3.16408 -6.67888,-6.04591 -9.75,-8.8125 -4.51385,-4.34212 -7.47635,-8.40438 -7.75,-11.0625 l -0.5625,-5.3125 z m 29.125,28.0625 c -0.27175,1.17122 -0.12635,1.95905 -0.125,1.96875 0.001,0.01 -0.20415,-0.69566 0.125,-1.96875 z m -2.40625,6.21875 c -0.40605,1.41336 -0.1893,2.2399 -0.1875,2.25 0.002,0.01 -0.24083,-0.81291 0.1875,-2.25 z"
       id="path3964"
       style="fill:#000000;fill-opacity:1;stroke:none" />
    <path
       d="m 310.45552,210.41212 c -25.29297,0.0179 -74.16521,-3.21447 -91.53136,6.40085 -12.9094,7.14769 -12.57461,15.00855 -12.57461,29.78596 0,14.7774 15.97893,26.7555 30.75736,26.7555 14.77843,0 26.75736,-11.9781 26.75736,-26.7555 0,-0.93469 -0.0402,-1.83246 -0.13379,-2.74244 11.01349,-2.35518 26.74668,-5.00504 43.71484,-6.75576 5.61937,16.31374 9.44807,22.13411 13.71315,25.45116 4.20022,3.26662 71.24032,7.5332 90.37298,8.69554 43.57263,73.21978 74.18324,253.61896 76.94092,296.10224 0.13449,2.07201 4.08615,10.60036 4.06699,11.95387 0,0 8.1121,4.88237 12.97732,-18.36096 4.86522,-23.24333 -31.62955,-222.22286 -88.6672,-324.87863 -3.86843,-6.96235 -4.97881,-12.2572 -14.58277,-18.92951 -29.21415,-4.69141 -61.87527,-6.7435 -91.81119,-6.72232 z"
       id="path3843"
       style="fill:#1c241c;fill-opacity:1;stroke:none" />
    <path
       d="M 188.20571,357.98007 193.92,310.66406 c 1.22968,-10.1821 24.86823,-25.88825 25.40727,-33.51365 l 2.9881,-42.27071 c 1.41656,-20.03909 111.46639,-16.93286 113.2883,0.76443 l 4.27302,41.50628 c 1.25625,12.20267 23.19562,22.05962 24.8667,33.51365 l 7.21237,49.4356 c 5.61795,38.50696 -178.03575,35.60827 -178.03575,-2.83388 l 3e-5,0 -5.71433,0.71429 z"
       id="path3017"
       style="fill:#5d6c53;fill-opacity:1;stroke:none" />
    <path
       d="m 194.59375,308.21875 c -0.34046,0.84007 -0.59314,1.65619 -0.6875,2.4375 l -5.6875,47.3125 5.6875,-0.6875 c 0,3.67819 1.71401,7.00899 4.75,10.03125 l 171.96875,0 c 1.21927,-2.21584 1.72135,-4.63058 1.34375,-7.21875 L 364.75,310.65625 c -0.11974,-0.82072 -0.36898,-1.63217 -0.6875,-2.4375 -57.34812,-14.5952 -113.44133,-7.85682 -169.46875,0 z"
       id="rect3847"
       style="opacity:0.5;fill:url(#linearGradient3966);fill-opacity:1;stroke:none" />
    <path
       d="m 131.42858,400.57646 c -4.07035,14.5822 11.80591,16.33422 9.82142,26.78572 -1.9845,10.4515 -12.53231,5.91812 -21.96429,16.25 -8.32444,12.13118 -10.0711,53.96497 -7.14285,67.32143 3.34046,6.72563 14.73901,3.70483 15.17856,12.85715 0.43956,9.15232 -12.06198,5.9363 -10.53571,18.0357 1.68313,13.34289 14.33116,46.36487 24.82143,56.42858 9.44106,7.96072 23.22883,4.13158 25.17858,13.57143 1.94974,9.43985 -5.51695,11.06625 -1.25001,23.03571 6.78386,12.18264 55.97111,52.45903 69.64286,44.46428 3.27242,-1.91359 2.19673,-6.80123 4.82143,-7.67856 6.80813,-1.24044 9.8231,6.5379 15,9.28571 5.426,2.09773 17.62234,2.22112 24.28571,0 6.66337,-2.22112 6.92148,-10.956 13.39286,-10.53571 6.1157,0.3972 1.27952,6.64344 12.14286,9.99999 2.92493,0.90375 2.46371,0.85165 8.85628,-0.11895 3.01246,-0.45739 14.80873,-10.97691 18.78114,-10.67147 4.13824,0.31818 -0.35394,6.91786 9.10714,6.60714 16.2381,-0.5333 53.06104,-34.52736 54.86258,-51.531 0.75742,-7.14889 -8.40698,-5.47298 -5.71428,-15.89286 2.63807,-10.20849 17.19566,-5.30418 27.14286,-13.57143 10.22473,-10.80511 21.89584,-38.46576 21.42856,-53.39285 -0.44384,-14.17826 -13.23237,-7.72692 -12.14285,-19.10715 1.08951,-11.38023 14.50898,-6.18031 16.96428,-13.21429 4.65095,-13.32409 0.35747,-51.72224 -2.85714,-62.49999 -3.21461,-10.77776 -17.27949,-8.27192 -21.42856,-19.64286 -4.14908,-11.37094 6.27964,-7.75489 4.46427,-19.46428 -2.90886,-18.76259 -24.60335,-56.59494 -38.03571,-64.46429 -10.73365,-4.70046 -21.54594,-5.67361 -32.21553,-9.43488 -17.36084,-6.12008 -52.70159,-2.96505 -57.53604,-5.29947 -14.98739,-7.23702 -47.88961,-4.89288 -71.44611,4.73004 -8.17802,3.34075 -21.30257,1.33811 -29.66255,2.5764 -30.44569,4.50966 -50.4658,34.35271 -63.96119,64.57076 z"
       id="path2999"
       style="fill:url(#linearGradient3968);fill-opacity:1;stroke:none" />
    <path
       d="m 268.25,327.78125 c -10.63436,-0.038 -23.34504,1.13163 -27.34375,2.3125 -6.39793,1.8894 -9.31549,4.92929 -11.09375,7.59375 -6.32745,9.48075 -18.03079,33.31878 -17.1875,45.4375 0.84329,12.11872 3.75189,12.61052 7.59375,12.625 13.69688,0.0516 59.88264,-3.23297 72.21875,-3.03125 9.04147,0.14785 12.07326,-5.01038 12.625,-9.59375 1.23097,-10.22586 -6.70372,-35.77679 -11.09375,-45.9375 -2.578,-5.96677 -4.04197,-4.56602 -11.125,-7.75 -2.57441,-1.15725 -8.21314,-1.63342 -14.59375,-1.65625 z m 60.1875,6.375 c -5.4034,0.16684 -9.64525,4.11904 -8.5,6.09375 5.66418,9.76655 15.09697,35.23691 17.46875,45.90625 2.02291,9.09998 9.60627,11.46362 15.125,12.125 12.42332,1.48884 33.82319,8.56509 44.96875,10.09375 3.37365,0.46271 6.27465,-2.27143 4.53125,-8.0625 -3.85393,-12.80163 -24.95533,-44.8658 -34.34375,-56.0625 -2.97255,-3.54508 -5.6265,-4.59449 -11.09375,-6.5625 -6.52368,-2.34829 -21.15395,-3.11444 -27.0625,-3.5 -0.36928,-0.0241 -0.73352,-0.0424 -1.09375,-0.0312 z m -133.25,7.53125 c -10.03357,0.54539 -25.98208,10.02643 -33.0625,14.6875 -3.87701,2.55225 -8.0748,8.19719 -11.09375,11.59375 -5.42568,6.10432 -13.64153,18.76847 -17.6875,27.78125 -3.33605,7.43136 -6.3249,14.1376 3.03125,15.65625 7.64336,1.24064 29.27335,-3.73891 40.40625,-6.5625 3.81188,-0.96679 10.81829,-5.01999 14.65625,-14.625 3.01675,-7.54984 12.49776,-25.94439 16.65625,-37.90625 2.39681,-6.89442 0.19079,-7.64216 -9,-10.25 -1.14885,-0.32598 -2.47288,-0.45291 -3.90625,-0.375 z m 98.90625,75.9375 c -20.66576,0.0197 -69.87894,2.25106 -82.96875,4.40625 -7.09021,1.16738 -8.71893,5.87389 -10.09375,10.59375 -3.44201,11.81671 -7.53542,47.44938 -3.53125,59.09375 1.9267,5.60296 2.86905,11.21895 9.59375,11.125 19.00087,-0.26545 80.8779,-2.52226 96.46875,-2.53125 8.51978,-0.005 12.67411,-1.56367 12.625,-8.59375 -0.0904,-12.94264 -0.3992,-44.69804 -2.53125,-61.09375 -0.89091,-6.85121 -5.18131,-11.11102 -10.625,-12.625 -0.93311,-0.25951 -4.16848,-0.37954 -8.9375,-0.375 z m 62,4.90625 c -6.06283,0.12391 -9.07745,5.05271 -9.09375,11.625 -0.0289,11.68929 4.34601,45.69532 4.53125,58.0625 0.079,5.27128 3.36372,12.60055 13.625,13.15625 9.83901,0.53283 34.30541,3.01307 42.4375,5.03125 6.85107,1.70026 7.95863,-4.51926 9.59375,-11.59375 2.63492,-11.40021 0.0836,-43.05396 -3.03125,-55.0625 -1.73409,-6.68544 -3.89328,-10.1234 -14.125,-13.125 -8.36591,-2.45424 -33.06528,-8.31596 -43.9375,-8.09375 z M 173.75,429.09375 c -9.81343,0.31977 -38.04429,7.14057 -47.46875,9.59375 -5.23058,1.36152 -8.01158,6.31558 -10.125,10.625 -4.33289,8.8351 -7.52324,45.58176 -6.0625,53.53125 1.46074,7.94949 2.01652,8.99761 5.0625,9.59375 8.39609,1.64324 42.74112,-4.19204 52.53125,-6.5625 4.72883,-1.14498 6.81796,-5.25775 6.5625,-9.59375 -0.49007,-8.31823 4.18935,-48.85378 6.0625,-57.59375 1.09853,-5.12566 -4.03888,-9.67598 -6.5625,-9.59375 z m 93.1875,94.71875 c -23.42177,0.15297 -49.55834,0.99561 -54.8125,1.75 -4.42151,0.63483 -14.20369,6.26383 -12.625,14.65625 1.5566,8.27494 3.84877,42.01982 11.125,50.5 3.00588,3.50324 7.23173,8.67216 12.625,8.59375 8.05298,-0.11708 63.08929,-0.0934 70.71875,0 4.60106,0.0564 13.37447,-0.12245 15.65625,-10.625 2.51193,-11.56185 8.59363,-44.2464 4.03125,-54.53125 -3.08284,-6.94957 -4.06034,-7.97705 -8.09375,-9.09375 -3.83626,-1.06212 -20.40807,-1.36898 -38.625,-1.25 z m 105.96875,2.3125 c -3.37665,-0.008 -6.41482,0.10222 -8.75,0.4375 -4.42151,0.63483 -17.28092,8.66487 -17.15625,16.1875 0.13277,8.01076 -8.87861,36.98981 -8.59375,46.46875 0.13866,4.61398 5.20048,11.17216 10.59375,11.09375 8.05298,-0.11708 22.68304,-0.0934 30.3125,0 4.60106,0.0564 9.67496,-0.57026 14.65625,-10.09375 6.04746,-11.56185 15.36503,-36.86087 17.15625,-47.96875 0.95777,-5.93942 -2.00878,-13.54463 -8.0625,-14.15625 -6.78929,-0.68594 -20.0263,-1.94554 -30.15625,-1.96875 z M 160.625,528.09375 c -18.20122,1.23989 -26.77112,1.74933 -35.875,3.03125 -4.42322,0.62283 -10.17244,4.23258 -8.59375,12.625 1.5566,8.27494 11.41127,38.48857 18.6875,46.96875 3.00588,3.50324 7.23173,10.70341 12.625,10.625 8.05298,-0.11708 26.71429,-1.1247 34.34375,-1.03125 4.60106,0.0564 8.50879,0.11479 7.59375,-10.59375 -0.98795,-11.56185 -7.67824,-37.71515 -12.125,-48 -3.01716,-6.97834 -9.44067,-14.11654 -16.65625,-13.625 z m 17.71875,92.09375 c -2.5513,4.5e-4 -5.11959,0.20279 -9.65625,0.84375 -4.42293,0.62489 -5.10994,4.73258 -3.53125,13.125 1.5566,8.27494 26.81324,29.15751 37.625,36.375 3.83921,2.5629 8.02054,6.03549 12.875,7.8125 3.2408,1.18632 16.38876,3.13228 19.21875,1.53125 2.24673,-1.27108 4.02556,-3.35743 1.25,-7.34375 -8.57366,-12.31371 -23.84798,-33.15265 -30.0625,-43.4375 -3.93181,-6.50703 -10.95866,-8.33892 -18.1875,-8.5625 -4.45105,-0.13767 -6.97995,-0.3442 -9.53125,-0.34375 z m 171.28125,0.59375 c -3.92145,-0.0308 -7.86959,0.20279 -12.40625,0.84375 -4.42293,0.62489 -10.03063,4.32165 -14.65625,11.5 -4.87197,7.56065 -15.63967,27.91206 -20.0625,40.46875 -1.53355,4.35386 -0.0166,6.61322 2.3125,6.875 3.42951,0.38546 4.80192,1.09755 8.03125,0.71875 4.74673,-0.55679 10.13974,-4.65725 13.625,-7.125 14.31932,-10.13886 35.93708,-31.72466 42.21875,-44.65625 1.76268,-3.6287 -1.06764,-7.46138 -6.78125,-7.9375 -4.43781,-0.3698 -8.3598,-0.65669 -12.28125,-0.6875 z m -87.65625,1.25 c -12.40359,0.0585 -24.83834,0.39029 -29.375,1.03125 -4.42293,0.62489 -8.39119,5.23258 -6.8125,13.625 1.5566,8.27494 11.14604,28.63974 19.9375,37.625 3.22826,3.29943 6.76467,7.30072 9.09375,7.5625 3.42951,0.38546 20.92003,1.60105 23.75,0 2.24673,-1.27108 6.31712,-3.72766 7.5625,-7.8125 3.96218,-12.996 15.55762,-32.07734 13.625,-43.9375 -0.64882,-3.98165 -2.84889,-7.11763 -8.5625,-7.59375 -4.43781,-0.3698 -16.81516,-0.55848 -29.21875,-0.5 z"
       id="path2951"
       style="fill:url(#linearGradient3970);fill-opacity:1;stroke:none" />
    <path
       d="m 306.45552,198.41212 c -25.29297,0.0179 -52.952,5.87691 -73.34861,9.43131 -14.53701,2.53329 -26.75736,11.97809 -26.75736,26.7555 0,14.7774 11.97893,26.7555 26.75736,26.7555 14.77843,0 26.75736,-11.9781 26.75736,-26.7555 0,-0.93469 -0.0402,-1.83246 -0.13379,-2.74244 11.01349,-2.35518 26.74668,-5.00504 43.71484,-6.75576 5.61937,16.31374 9.44807,22.13411 13.71315,25.45116 4.20022,3.26662 71.24032,7.5332 90.37298,8.69554 45.69777,76.79087 81.41995,278.95099 81.00791,308.05611 0,0 8.1121,4.88237 12.97732,-18.36096 4.86522,-23.24333 -31.62955,-222.22286 -88.6672,-324.87863 -3.86843,-6.96235 -4.97881,-12.2572 -14.58277,-18.92951 -29.21415,-4.69141 -61.87527,-6.7435 -91.81119,-6.72232 z"
       id="path2869"
       style="fill:#3e4837;fill-opacity:1;stroke:none" />
    <path
       d="m 237.38584,218.22873 a 7.8286819,7.8286819 0 1 1 -15.65736,0 7.8286819,7.8286819 0 1 1 15.65736,0 z"
       transform="matrix(1.0702944,0,0,1.0702199,-11.500522,1.597421)"
       id="path2874"
       style="fill:#1c241c;fill-opacity:1;stroke:none" />
    <path
       d="m 217.85522,280.94576 c -5.06062,7.77805 -21.73316,19.43437 -23.71371,28.09327 56.31783,-9.23054 112.76698,-15.96602 170.41094,0 -1.88773,-9.67052 -19.91177,-18.11376 -23.88094,-28.09327 -44.53462,-12.58548 -83.50467,-5.69499 -122.81629,0 z"
       id="rect2896"
       style="fill:url(#linearGradient3972);fill-opacity:1;stroke:none" />
    <path
       d="m 402.65625,208.59375 c 4.05577,4.38463 5.42243,8.49222 8.1875,13.46875 57.03765,102.65577 93.55272,301.63167 88.6875,324.875 -3.37248,16.11185 -8.3219,18.7041 -11.03125,18.78125 0.0106,0.52623 0.0376,1.14772 0.0312,1.59375 0,0 8.13478,4.86833 13,-18.375 4.86522,-23.24333 -31.64985,-222.21923 -88.6875,-324.875 -3.17599,-5.71611 -4.50303,-10.31552 -10.1875,-15.46875 z m -99.21875,14.5 c -16.96816,1.75072 -34.70526,4.39482 -45.71875,6.75 0.0936,0.90998 0.15625,1.81531 0.15625,2.75 0,14.7774 -12.00282,26.75 -26.78125,26.75 -6.83229,0 -13.05271,-2.5367 -17.78125,-6.75 4.89456,5.38487 11.93021,8.75 19.78125,8.75 14.77843,0 26.78125,-11.9726 26.78125,-26.75 0,-0.93469 -0.0627,-1.84002 -0.15625,-2.75 10.74596,-2.29797 28.00457,-4.84362 44.5,-6.59375 -0.26014,-0.73129 -0.5132,-1.37808 -0.78125,-2.15625 z m 10.9375,24.8125 c 0.91937,1.05649 1.84335,1.92683 2.78125,2.65625 4.15765,3.23351 71.61131,7.41258 91.5,8.625 -0.37451,-0.64842 -0.74912,-1.30587 -1.125,-1.9375 -19.13266,-1.16234 -88.17478,-5.42088 -92.375,-8.6875 -0.26657,-0.20732 -0.51755,-0.42743 -0.78125,-0.65625 z"
       id="path3665"
       style="fill:#1c241c;fill-opacity:1;stroke:none" />
    <path
       d="m 323.2488,217.47112 a 5.5558391,5.5558391 0 1 1 -11.11168,0 5.5558391,5.5558391 0 1 1 11.11168,0 z"
       transform="matrix(1.0702944,0,0,1.0702199,-12.890459,-1.238129)"
       id="path2884"
       style="fill:#1f241c;fill-opacity:1;stroke:none" />
    <path
       d="m 327.11913,237.59769 c -33.43774,0 -60.52167,23.15494 -60.52167,51.70946 0,28.55453 27.08393,51.70947 60.52167,51.70947 33.43773,0 60.55249,-23.15494 60.55249,-51.70947 0,-28.55452 -27.11476,-51.70946 -60.55249,-51.70946 z m 0,6.39785 c 29.30961,0 53.09134,20.28234 53.09134,45.31161 0,25.02928 -23.78173,45.31161 -53.09134,45.31161 -29.30963,0 -53.06052,-20.28233 -53.06052,-45.31161 0,-25.02927 23.75089,-45.31161 53.06052,-45.31161 z"
       id="path2879"
       style="fill:#1c241c;fill-opacity:1;stroke:none" />
    <path
       d="m 327.13411,237.59844 c -33.43774,0 -60.53125,23.16708 -60.53125,51.72159 0,13.90559 6.42303,26.5215 16.875,35.81547 10.8473,8.78969 25.51955,14.1714 41.65625,14.1714 33.43773,0 60.53125,-23.14039 60.53125,-51.69491 0,-13.84819 -6.36687,-26.42575 -16.75,-35.70871 -10.86889,-8.85889 -25.57298,-14.30484 -41.78125,-14.30484 z m -2,4.69711 c 15.16461,0 28.82322,5.43742 38.5,14.14471 10.20432,8.25679 16.5625,19.9298 16.5625,32.87977 0,25.02928 -23.75289,45.28976 -53.0625,45.28976 -15.16462,0 -28.83118,-5.43742 -38.5,-14.14471 -10.19635,-8.25679 -16.5625,-19.90309 -16.5625,-32.85309 0,-25.02927 23.75287,-45.31644 53.0625,-45.31644 z"
       id="path3660"
       style="fill:#9dac93;fill-opacity:1;stroke:none" />
    <rect
       width="8.6492853"
       height="21.621706"
       rx="4.0406103"
       ry="4.0406103"
       x="322.80994"
       y="227.88213"
       id="rect2886"
       style="fill:#9dac93;fill-opacity:1;stroke:none" />
    <path
       d="m 329.07161,228.22357 c 0.23966,0.51724 0.375,1.07797 0.375,1.6875 l 0,13.5625 c 0,2.2385 -1.79275,4.03125 -4.03125,4.03125 l -0.5625,0 c -0.59973,0 -1.14543,-0.14256 -1.65625,-0.375 0.63515,1.39583 2.01748,2.375 3.65625,2.375 l 0.5625,0 c 2.2385,0 4.03125,-1.79275 4.03125,-4.03125 l 0,-13.5625 c 0,-1.65304 -0.95951,-3.06038 -2.375,-3.6875 z"
       id="rect3670"
       style="fill:#1f241c;fill-opacity:1;stroke:none" />
    <path
       d="m 382.375,364.625 c 0.98595,10.69645 1.46875,21.59495 1.46875,32.65625 0,2.72927 -0.0323,5.4473 -0.0937,8.15625 5.22792,1.31472 10.06736,2.43241 13.75,2.9375 3.37365,0.46271 6.27465,-2.27143 4.53125,-8.0625 -2.34341,-7.78411 -11.06978,-22.68137 -19.65625,-35.6875 z m 0.28125,61.75 c -2.28926,27.951 -7.81677,54.55356 -16.09375,79.09375 10.53252,0.65957 33.23066,3.00159 41.03125,4.9375 6.85107,1.70026 7.95863,-4.51926 9.59375,-11.59375 2.63492,-11.40021 0.0836,-43.05396 -3.03125,-55.0625 -1.73409,-6.68544 -3.89328,-10.1234 -14.125,-13.125 -3.5767,-1.04927 -10.18424,-2.69678 -17.375,-4.25 z m -9.75,99.75 c -3.37665,-0.008 -6.41482,0.10222 -8.75,0.4375 -1.5683,0.22517 -4.20199,1.39168 -6.9375,3.125 -3.64186,8.34054 -7.62235,16.39282 -11.90625,24.09375 -2.55779,11.92777 -7.11035,28.64576 -6.90625,35.4375 0.13866,4.61398 5.20048,11.17216 10.59375,11.09375 8.05298,-0.11708 22.68304,-0.0934 30.3125,0 4.60106,0.0564 9.67496,-0.57026 14.65625,-10.09375 6.04746,-11.56185 15.36503,-36.86087 17.15625,-47.96875 0.95777,-5.93942 -2.00878,-13.54463 -8.0625,-14.15625 -6.78929,-0.68594 -20.0263,-1.94554 -30.15625,-1.96875 z M 349.625,620.78125 c -3.92145,-0.0308 -7.86959,0.20279 -12.40625,0.84375 -4.42293,0.62489 -10.03063,4.32165 -14.65625,11.5 -4.87197,7.56065 -15.63967,27.91206 -20.0625,40.46875 -1.53355,4.35386 -0.0166,6.61322 2.3125,6.875 3.42951,0.38546 4.80192,1.09755 8.03125,0.71875 4.74673,-0.55679 10.13974,-4.65725 13.625,-7.125 14.31932,-10.13886 35.93708,-31.72466 42.21875,-44.65625 1.76268,-3.6287 -1.06764,-7.46138 -6.78125,-7.9375 -4.43781,-0.3698 -8.3598,-0.65669 -12.28125,-0.6875 z m -61.53125,1.5625 c -17.4361,13.60796 -36.59834,23.54929 -56.9375,29.0625 3.92754,8.39346 9.38341,17.61299 14.5625,22.90625 3.22826,3.29943 6.76467,7.30072 9.09375,7.5625 3.42951,0.38546 20.92003,1.60105 23.75,0 2.24673,-1.27108 6.31712,-3.72766 7.5625,-7.8125 3.96218,-12.996 15.55762,-32.07734 13.625,-43.9375 -0.64882,-3.98165 -2.84889,-7.11763 -8.5625,-7.59375 -0.77674,-0.0647 -1.87299,-0.13423 -3.09375,-0.1875 z m -65.46875,31.125 c -9.35046,1.93182 -18.94185,2.90625 -28.6875,2.90625 -3.26714,0 -6.49211,-0.12131 -9.71875,-0.34375 6.8504,5.94904 13.99287,11.4495 18.5625,14.5 3.83921,2.5629 8.02054,6.03549 12.875,7.8125 3.2408,1.18632 16.38876,3.13228 19.21875,1.53125 2.24673,-1.27108 4.02556,-3.35743 1.25,-7.34375 -3.67609,-5.2797 -8.60251,-12.15216 -13.5,-19.0625 z"
       id="path3682"
       style="fill:#30372a;fill-opacity:1;stroke:none" />
  </g>
</svg>
